<?xml version="1.0" encoding="UTF-8"?>
<svg version="1.1" xmlns="http://www.w3.org/2000/svg" width="151" height="81">
<path d="M0 0 C4.70745077 3.9317076 9.1641171 8.02257286 13.48608398 12.37255859 C14.09182755 12.97815613 14.69757111 13.58375366 15.32167053 14.20770264 C17.29886146 16.18558341 19.27249876 18.16696914 21.24609375 20.1484375 C22.62592516 21.53013639 24.0059793 22.91161288 25.38624573 24.2928772 C29.0002185 27.91064913 32.61117673 31.53141519 36.22149658 35.15283203 C39.91341203 38.85501777 43.60819663 42.55433771 47.30273438 46.25390625 C54.53795303 53.49981631 61.76998741 60.74889555 69 68 C71.78382043 66.72829615 73.82934578 65.41939717 75.9866333 63.25387573 C76.82788254 62.41675049 76.82788254 62.41675049 77.68612671 61.56271362 C78.28889435 60.95275543 78.89166199 60.34279724 79.51269531 59.71435547 C80.15701508 59.07032776 80.80133484 58.42630005 81.46517944 57.76275635 C83.59093698 55.63560693 85.70952508 53.50146388 87.828125 51.3671875 C89.30170781 49.88987407 90.77573318 48.41300196 92.25018311 46.93655396 C96.12780821 43.05129631 99.99938941 39.16006971 103.86975098 35.26757812 C107.82099939 31.29586322 111.77792261 27.329811 115.734375 23.36328125 C123.49515421 15.5810588 131.24956148 7.79252001 139 0 C140.98 1.65 142.96 3.3 145 5 C143.68634063 7.90297734 142.27927877 9.96908109 140.02609253 12.2144165 C139.41752411 12.82573425 138.80895569 13.437052 138.1819458 14.06689453 C137.51588318 14.7257666 136.84982056 15.38463867 136.16357422 16.06347656 C135.10975052 17.11773834 135.10975052 17.11773834 134.03463745 18.19329834 C131.71269689 20.51384625 129.38375372 22.8272308 127.0546875 25.140625 C125.44285268 26.74872947 123.83145903 28.35727625 122.2204895 29.96624756 C117.98012971 34.19897265 113.73379794 38.42565715 109.48620605 42.65112305 C105.15255457 46.96431271 100.82456212 51.28317249 96.49609375 55.6015625 C88.00293327 64.07327591 79.50345472 72.53862033 71 81 C68.09702266 79.68634063 66.03091891 78.27927877 63.7855835 76.02609253 C63.17426575 75.41752411 62.562948 74.80895569 61.93310547 74.1819458 C60.94479736 73.18285187 60.94479736 73.18285187 59.93652344 72.16357422 C59.23368225 71.46102509 58.53084106 70.75847595 57.80670166 70.03463745 C55.48615375 67.71269689 53.1727692 65.38375372 50.859375 63.0546875 C49.25127053 61.44285268 47.64272375 59.83145903 46.03375244 58.2204895 C41.80102735 53.98012971 37.57434285 49.73379794 33.34887695 45.48620605 C29.03568729 41.15255457 24.71682751 36.82456212 20.3984375 32.49609375 C11.92672409 24.00293327 3.46137967 15.50345472 -5 7 C-3.70700306 4.11562221 -2.34058637 2.12780579 0 0 Z " fill="#000000" transform="translate(6,0)"/>
</svg>
