<?xml version="1.0" standalone="no"?>
<!DOCTYPE svg PUBLIC "-//W3C//DTD SVG 20010904//EN"
 "http://www.w3.org/TR/2001/REC-SVG-20010904/DTD/svg10.dtd">
<svg version="1.0" xmlns="http://www.w3.org/2000/svg"
 width="2000.000000pt" height="303.000000pt" viewBox="0 0 2000.000000 303.000000"
 preserveAspectRatio="xMidYMid meet">

<g transform="translate(0.000000,303.000000) scale(0.100000,-0.100000)"
fill="#000000" stroke="none">
<path d="M0 1515 l0 -1515 305 0 305 0 0 1515 0 1515 -305 0 -305 0 0 -1515z"/>
<path d="M1210 1515 l0 -1515 305 0 305 0 0 1210 0 1210 605 0 605 0 0 305 0
305 -910 0 -910 0 0 -1515z"/>
<path d="M3632 2728 l3 -303 908 -3 907 -2 0 305 0 305 -910 0 -910 0 2 -302z"/>
<path d="M7275 3023 c-551 -66 -984 -372 -1219 -864 -102 -212 -140 -389 -140
-649 0 -261 42 -444 153 -667 80 -159 165 -277 291 -403 207 -207 468 -348
763 -412 147 -32 446 -32 592 0 154 33 263 74 406 153 l131 72 -224 223 -223
224 -41 -19 c-141 -68 -382 -87 -559 -43 -444 110 -741 552 -676 1002 31 206
107 356 261 510 138 138 229 191 418 242 110 30 303 30 425 0 320 -79 571
-326 659 -650 32 -115 32 -346 0 -455 -12 -44 -31 -97 -42 -119 l-19 -39 223
-227 223 -226 71 131 c79 143 132 288 159 433 27 144 24 430 -6 570 -92 434
-347 791 -724 1016 -160 95 -382 170 -572 193 -84 10 -262 13 -330 4z"/>
<path d="M9540 2149 c0 -992 1 -1002 71 -1214 69 -209 174 -377 330 -534 456
-458 1180 -532 1716 -174 305 203 502 491 586 858 20 87 21 120 24 1018 l4
927 -306 0 -305 0 0 -883 c0 -853 -1 -887 -20 -963 -88 -344 -382 -574 -735
-574 -352 0 -649 232 -735 574 -19 76 -20 113 -20 963 l0 883 -305 0 -305 0 0
-881z"/>
<path d="M15770 2725 l0 -305 1510 0 1510 0 0 305 0 305 -1510 0 -1510 0 0
-305z"/>
<path d="M19390 1515 l0 -1515 305 0 305 0 0 1515 0 1515 -305 0 -305 0 0
-1515z"/>
<path d="M13138 1513 l-875 -1508 878 -3 c484 -1 1274 -1 1758 0 l879 3 -876
1508 c-482 829 -879 1507 -882 1507 -3 0 -400 -678 -882 -1507z m1237 -302
c190 -327 344 -596 342 -598 -2 -2 -317 -2 -701 -1 l-696 3 347 598 c191 328
350 596 355 595 5 -2 164 -270 353 -597z"/>
<path d="M15772 1538 c2 -161 7 -299 11 -305 7 -10 231 -13 1065 -13 1126 -1
1144 -1 1210 -49 49 -34 100 -99 116 -149 21 -59 20 -146 -1 -208 -21 -61
-112 -156 -169 -175 -31 -11 -246 -15 -1028 -19 l-988 -5 48 -65 c148 -203
400 -383 654 -470 179 -61 198 -63 693 -67 494 -5 649 3 763 38 172 52 346
169 451 302 419 526 152 1294 -505 1455 -59 14 -196 16 -1196 19 l-1128 4 4
-293z"/>
<path d="M2420 1515 l0 -305 1083 0 c1244 0 1152 6 1247 -88 67 -67 90 -124
90 -221 0 -111 -61 -209 -163 -263 l-42 -23 -1107 -3 -1108 -2 0 -305 0 -305
1099 0 c1208 0 1196 -1 1350 61 271 108 477 339 553 621 32 117 32 336 0 453
-89 324 -330 565 -660 658 -77 22 -80 22 -1209 25 l-1133 3 0 -306z"/>
</g>
</svg>
