<?xml version="1.0" encoding="UTF-8"?>
<svg version="1.1" xmlns="http://www.w3.org/2000/svg" width="150" height="150">
<path d="M0 0 C49.5 0 99 0 150 0 C150 49.5 150 99 150 150 C147.36 150 144.72 150 142 150 C141.67 105.78 141.34 61.56 141 16 C96.78 60.22 52.56 104.44 7 150 C3.76524552 148.38262276 2.29427979 147.52370777 0 145 C1.59178029 141.07429348 4.29194281 138.43359082 7.2517395 135.50775146 C7.79247726 134.96530485 8.33321502 134.42285824 8.89033878 133.86397386 C10.70358562 132.0474326 12.52388856 130.23813228 14.34423828 128.42871094 C15.6454389 127.12807444 16.94619932 125.82699743 18.24655151 124.5255127 C21.77904573 120.99244401 25.31767812 117.46558124 28.85742807 113.93978405 C32.55523933 110.25446442 36.24739802 106.56349072 39.94015503 102.87310791 C46.93428425 95.88519806 53.93349669 88.90240266 60.93454063 81.92142129 C70.39440115 72.48808258 79.8464081 63.04688177 89.29885292 53.60611343 C104.19281465 38.73096493 119.09725816 23.86636411 134 9 C89.78 8.67 45.56 8.34 0 8 C0 5.36 0 2.72 0 0 Z " fill="#000000" transform="translate(0,0)"/>
</svg>
